<svg width="512" height="512" xmlns="http://www.w3.org/2000/svg">

 <g>
  <title>background</title>
  <rect fill="none" id="canvas_background" height="602" width="802" y="-1" x="-1"/>
 </g>
 <g>
  <title>Layer 1</title>
  <g stroke="null" id="svg_1">
   <g stroke="null" id="svg_2">
    <path stroke="null" id="svg_3" d="m382.06,174.486c-2.592,5.60867 -8.288,9.18067 -14.56,9.18067l-64,0l0,203.66668c0,8.648 -7.168,15.66667 -16,15.66667l-64,0c-8.832,0 -16,-7.01867 -16,-15.66667l0,-203.66668l-64,0c-6.272,0 -11.968,-3.60333 -14.56,-9.18067c-2.624,-5.60867 -1.6,-12.15733 2.528,-16.79467l112,-125.33334c3.04,-3.41533 7.424,-5.358 12.032,-5.358c4.608,0 8.992,1.974 12.032,5.358l112,125.33334c4.16,4.606 5.12,11.186 2.528,16.79467z"/>
   </g>
  </g>
  <g id="svg_4">
   <g id="svg_5">
    <path id="svg_6" d="m432,352l0,96l-352,0l0,-96l-64,0l0,128c0,17.696 14.336,32 32,32l416,0c17.696,0 32,-14.304 32,-32l0,-128l-64,0z"/>
   </g>
  </g>
  <g id="svg_7"/>
  <g id="svg_8"/>
  <g id="svg_9"/>
  <g id="svg_10"/>
  <g id="svg_11"/>
  <g id="svg_12"/>
  <g id="svg_13"/>
  <g id="svg_14"/>
  <g id="svg_15"/>
  <g id="svg_16"/>
  <g id="svg_17"/>
  <g id="svg_18"/>
  <g id="svg_19"/>
  <g id="svg_20"/>
  <g id="svg_21"/>
 </g>
</svg>